<?xml version="1.0" encoding="UTF-8"?>
<!DOCTYPE svg PUBLIC "-//W3C//DTD SVG 1.1//EN" "http://www.w3.org/Graphics/SVG/1.1/DTD/svg11.dtd">
<svg xmlns="http://www.w3.org/2000/svg" version="1.1" width="3994px" height="1025px" style="shape-rendering:geometricPrecision; text-rendering:geometricPrecision; image-rendering:optimizeQuality; fill-rule:evenodd; clip-rule:evenodd" xmlns:xlink="http://www.w3.org/1999/xlink">
<g><path style="opacity:0.995" fill="#01affd" d="M 1126.5,470.5 C 1127.35,494.156 1127.68,517.822 1127.5,541.5C 1116.5,673.685 1060.17,781.518 958.5,865C 852.122,946.512 732.455,976.845 599.5,956C 458.223,927.655 352.057,851.155 281,726.5C 217.954,604.394 209.954,478.727 257,349.5C 309.041,223.125 398.874,135.625 526.5,87C 646.701,46.4098 764.034,53.4098 878.5,108C 984.958,162.802 1059.46,246.302 1102,358.5C 1115.21,394.74 1123.38,432.073 1126.5,470.5 Z"/></g>
<g><path style="opacity:1" fill="#000000" d="M 655.5,90.5 C 787.389,87.3881 898.556,133.388 989,228.5C 1082.21,335.963 1115.54,459.963 1089,600.5C 1057.05,733.416 980.221,830.583 858.5,892C 753.39,939.817 646.057,945.484 536.5,909C 398.487,855.655 309.32,757.822 269,615.5C 239.388,487.799 262.055,370.465 337,263.5C 404.138,173.978 492.971,118.478 603.5,97C 620.941,94.4758 638.274,92.3092 655.5,90.5 Z"/></g>
<g><path style="opacity:0.893" fill="#f1f1f1" d="M 3751.5,169.5 C 3787.3,172.804 3806.97,192.304 3810.5,228C 3809.23,253.231 3797.23,271.231 3774.5,282C 3747.54,291.126 3724.71,284.959 3706,263.5C 3690.41,239.271 3690.74,215.271 3707,191.5C 3718.85,177.949 3733.68,170.616 3751.5,169.5 Z M 3746.5,173.5 C 3778.23,172.933 3798.06,187.933 3806,218.5C 3809.41,244.51 3799.91,264.01 3777.5,277C 3749.6,288.292 3726.1,282.459 3707,259.5C 3693.25,235.346 3694.92,212.346 3712,190.5C 3721.78,181.192 3733.28,175.525 3746.5,173.5 Z M 3743.5,206.5 C 3748.84,206.334 3754.18,206.501 3759.5,207C 3760.93,207.465 3762.1,208.299 3763,209.5C 3765.07,214.574 3764.91,219.574 3762.5,224.5C 3761.42,225.705 3760.09,226.372 3758.5,226.5C 3753.5,226.5 3748.5,226.5 3743.5,226.5C 3743.5,219.833 3743.5,213.167 3743.5,206.5 Z"/></g>
<g><path style="opacity:0.989" fill="#eeeeee" d="M 3732.5,196.5 C 3742.51,196.334 3752.51,196.5 3762.5,197C 3773.28,201.6 3777.44,209.767 3775,221.5C 3774.33,223.5 3773.67,225.5 3773,227.5C 3770.43,230.066 3767.93,232.566 3765.5,235C 3769.27,243.028 3772.6,251.195 3775.5,259.5C 3772.48,259.665 3769.48,259.498 3766.5,259C 3762.45,251.731 3758.78,244.231 3755.5,236.5C 3751.55,235.509 3747.55,235.176 3743.5,235.5C 3743.67,243.174 3743.5,250.841 3743,258.5C 3739.33,259.833 3735.67,259.833 3732,258.5C 3731.18,237.76 3731.35,217.094 3732.5,196.5 Z M 3743.5,206.5 C 3748.84,206.334 3754.18,206.501 3759.5,207C 3760.93,207.465 3762.1,208.299 3763,209.5C 3765.07,214.574 3764.91,219.574 3762.5,224.5C 3761.42,225.705 3760.09,226.372 3758.5,226.5C 3753.5,226.5 3748.5,226.5 3743.5,226.5C 3743.5,219.833 3743.5,213.167 3743.5,206.5 Z"/></g>
<g><path style="opacity:0.502" fill="#666666" d="M 3743.5,206.5 C 3743.5,213.167 3743.5,219.833 3743.5,226.5C 3748.5,226.5 3753.5,226.5 3758.5,226.5C 3753.36,227.488 3748.03,227.821 3742.5,227.5C 3742.18,220.313 3742.51,213.313 3743.5,206.5 Z"/></g>
<g><path style="opacity:1" fill="#00acfa" d="M 674.5,228.5 C 751.272,231.449 803.106,268.782 830,340.5C 832.625,350.042 834.625,359.708 836,369.5C 836.667,424.5 836.667,479.5 836,534.5C 830.825,550.967 819.658,557.467 802.5,554C 793.166,550.665 787.333,544.165 785,534.5C 784.667,482.5 784.333,430.5 784,378.5C 778.282,336.794 756.449,306.961 718.5,289C 667.598,271.42 625.098,283.254 591,324.5C 581.032,338.731 574.365,354.398 571,371.5C 570.026,427.191 569.026,482.858 568,538.5C 561.351,552.066 550.518,557.233 535.5,554C 525.969,549.806 520.136,542.639 518,532.5C 517.333,479.833 517.333,427.167 518,374.5C 527.204,304.636 565.037,258.136 631.5,235C 645.738,231.25 660.072,229.083 674.5,228.5 Z"/></g>
<g><path style="opacity:1" fill="#000102" d="M 661.5,243.5 C 730.785,240.374 780.619,269.707 811,331.5C 817.083,346.244 820.749,361.577 822,377.5C 822.667,428.5 822.667,479.5 822,530.5C 819.881,538.617 814.714,541.783 806.5,540C 803.272,538.437 801.105,535.937 800,532.5C 799.667,480.833 799.333,429.167 799,377.5C 791.366,324.208 762.199,288.708 711.5,271C 651.084,257.471 604.25,276.637 571,328.5C 563.202,342.561 558.202,357.561 556,373.5C 555.667,426.5 555.333,479.5 555,532.5C 549.867,541.424 543.2,542.758 535,536.5C 534.138,534.913 533.471,533.246 533,531.5C 532.333,478.5 532.333,425.5 533,372.5C 541.484,314.684 572.651,274.518 626.5,252C 638.037,248.065 649.704,245.231 661.5,243.5 Z"/></g>
<g><path style="opacity:0.991" fill="#03b0ff" d="M 2085.5,288.5 C 2108.08,288.173 2130.58,288.506 2153,289.5C 2153.67,432.5 2153.67,575.5 2153,718.5C 2134.24,719.659 2115.41,719.825 2096.5,719C 2092.7,709.583 2088.54,700.416 2084,691.5C 2054.51,713.439 2021.35,723.939 1984.5,723C 1934.88,718.22 1904.88,691.387 1894.5,642.5C 1889.01,618.648 1886.68,594.482 1887.5,570C 1886.47,539.29 1889.97,509.123 1898,479.5C 1910.27,441.238 1936.44,419.738 1976.5,415C 2013.54,411.296 2049.54,415.796 2084.5,428.5C 2084.17,381.761 2084.51,335.095 2085.5,288.5 Z M 2008.5,466.5 C 2034.15,464.45 2058.82,468.45 2082.5,478.5C 2083.67,534.83 2083.83,591.164 2083,647.5C 2057.78,663.945 2030.28,669.778 2000.5,665C 1982.39,661.555 1970.56,651.055 1965,633.5C 1961.97,623.708 1959.97,613.708 1959,603.5C 1956.53,574.418 1957.2,545.418 1961,516.5C 1962.86,500.947 1969.36,487.78 1980.5,477C 1989.19,471.479 1998.52,467.979 2008.5,466.5 Z"/></g>
<g><path style="opacity:0.988" fill="#fefffe" d="M 3437.5,288.5 C 3460.08,288.173 3482.58,288.506 3505,289.5C 3505.5,369.166 3505.67,448.833 3505.5,528.5C 3518.84,528.667 3532.17,528.5 3545.5,528C 3570.83,491.333 3596.17,454.667 3621.5,418C 3644.51,417.167 3667.51,417.334 3690.5,418.5C 3658.9,465.367 3627.57,512.367 3596.5,559.5C 3630.24,612.631 3664.24,665.631 3698.5,718.5C 3675.17,719.666 3651.84,719.833 3628.5,719C 3600.75,676.162 3572.75,633.496 3544.5,591C 3531.5,590.5 3518.5,590.333 3505.5,590.5C 3505.67,633.168 3505.5,675.835 3505,718.5C 3482.33,719.833 3459.67,719.833 3437,718.5C 3436.17,575.097 3436.34,431.764 3437.5,288.5 Z"/></g>
<g><path style="opacity:0.987" fill="#00afff" d="M 1367.5,299.5 C 1417.72,297.423 1466.88,303.423 1515,317.5C 1515.67,334.5 1515.67,351.5 1515,368.5C 1479.32,363.917 1443.32,361.251 1407,360.5C 1387.52,360.038 1368.69,363.204 1350.5,370C 1336.43,377.402 1326.6,388.569 1321,403.5C 1314.98,419.63 1311.31,436.297 1310,453.5C 1305.69,501.342 1307.02,549.009 1314,596.5C 1320.68,638.263 1345.18,659.763 1387.5,661C 1430,662.224 1472.34,660.558 1514.5,656C 1515.66,673.093 1515.82,690.259 1515,707.5C 1501.88,712.059 1488.38,715.226 1474.5,717C 1440.68,722.078 1406.68,724.078 1372.5,723C 1351.84,722.224 1331.84,718.224 1312.5,711C 1285.61,698.108 1267.11,677.608 1257,649.5C 1247.1,620.998 1241.43,591.665 1240,561.5C 1237.54,521.109 1238.21,480.775 1242,440.5C 1244.94,409.751 1253.6,380.751 1268,353.5C 1284.87,326.471 1309.03,309.971 1340.5,304C 1349.62,302.344 1358.62,300.844 1367.5,299.5 Z"/></g>
<g><path style="opacity:0.985" fill="#fefffe" d="M 2535.5,302.5 C 2557.74,302.173 2579.91,302.506 2602,303.5C 2602.33,409.833 2602.67,516.167 2603,622.5C 2604.28,643.106 2615.11,654.606 2635.5,657C 2684.17,657.333 2732.83,657.667 2781.5,658C 2782.83,678.333 2782.83,698.667 2781.5,719C 2723.83,719.667 2666.17,719.667 2608.5,719C 2563.98,714.485 2539.48,689.985 2535,645.5C 2534.17,531.097 2534.34,416.764 2535.5,302.5 Z"/></g>
<g><path style="opacity:1" fill="#00a9f5" d="M 687.5,317.5 C 690.325,317.081 692.491,318.081 694,320.5C 694.33,323.866 693.997,327.199 693,330.5C 685.023,359.741 677.356,389.074 670,418.5C 667.472,422.085 664.472,422.418 661,419.5C 660.333,416.833 660.333,414.167 661,411.5C 669.133,381.968 676.8,352.302 684,322.5C 684.997,320.677 686.164,319.01 687.5,317.5 Z"/></g>
<g><path style="opacity:1" fill="#00abf8" d="M 639.5,337.5 C 644.813,337.644 646.979,340.31 646,345.5C 639.389,353.947 632.223,361.947 624.5,369.5C 631.481,377.649 638.648,385.649 646,393.5C 647.357,399.981 644.857,402.481 638.5,401C 630,391.833 621.5,382.667 613,373.5C 612.333,371.167 612.333,368.833 613,366.5C 622.068,356.937 630.901,347.27 639.5,337.5 Z"/></g>
<g><path style="opacity:1" fill="#00abf8" d="M 711.5,337.5 C 712.873,337.343 714.207,337.51 715.5,338C 724,347.167 732.5,356.333 741,365.5C 741.875,366.873 742.375,368.373 742.5,370C 741.459,372.723 739.959,375.223 738,377.5C 731.433,384.311 725.1,391.311 719,398.5C 715.952,402.01 712.619,402.343 709,399.5C 708.333,397.5 708.333,395.5 709,393.5C 715.817,385.382 722.984,377.549 730.5,370C 723.333,362.167 716.167,354.333 709,346.5C 707.779,342.718 708.613,339.718 711.5,337.5 Z"/></g>
<g><path style="opacity:0.993" fill="#03b0ff" d="M 1677.5,413.5 C 1701.33,412.551 1725,414.051 1748.5,418C 1787.54,425.038 1812.7,447.538 1824,485.5C 1831.04,512.542 1834.21,540.042 1833.5,568C 1834.13,594.882 1831.3,621.382 1825,647.5C 1816.95,681.88 1796.12,704.38 1762.5,715C 1733.57,722.051 1704.23,724.384 1674.5,722C 1648.67,721.277 1625,713.943 1603.5,700C 1584.9,683.985 1573.06,663.818 1568,639.5C 1564.81,625.333 1562.81,611 1562,596.5C 1561.33,577.167 1561.33,557.833 1562,538.5C 1562.83,515.024 1567.5,492.358 1576,470.5C 1588.89,442.62 1610.39,425.453 1640.5,419C 1652.89,416.579 1665.23,414.746 1677.5,413.5 Z M 1683.5,469.5 C 1700.08,468.551 1716.41,470.051 1732.5,474C 1740.89,477.725 1747.39,483.559 1752,491.5C 1757.69,504.576 1761.02,518.243 1762,532.5C 1764.65,562.966 1763.65,593.3 1759,623.5C 1757.05,639.93 1749.22,652.43 1735.5,661C 1728.43,663.814 1721.1,665.481 1713.5,666C 1702.5,666.667 1691.5,666.667 1680.5,666C 1664.74,665.874 1652.57,659.374 1644,646.5C 1636.56,629.644 1632.56,611.977 1632,593.5C 1631.16,572.478 1631.49,551.478 1633,530.5C 1634.23,514.895 1638.57,500.229 1646,486.5C 1656.06,475.318 1668.56,469.651 1683.5,469.5 Z"/></g>
<g><path style="opacity:0.989" fill="#01b0ff" d="M 2328.5,413.5 C 2350.94,412.786 2373.27,413.952 2395.5,417C 2432.79,420.966 2455.63,441.133 2464,477.5C 2468.13,498.451 2468.47,519.451 2465,540.5C 2458.64,565.199 2443.14,581.032 2418.5,588C 2409.32,590.53 2399.99,592.197 2390.5,593C 2355.17,593.5 2319.83,593.667 2284.5,593.5C 2284.87,609.944 2287.71,625.944 2293,641.5C 2299.91,654.885 2310.74,663.385 2325.5,667C 2331.12,668.258 2336.79,669.258 2342.5,670C 2380.82,671.233 2419.15,671.9 2457.5,672C 2458.66,684.758 2458.82,697.591 2458,710.5C 2457.5,711 2457,711.5 2456.5,712C 2413.6,721.016 2370.27,724.35 2326.5,722C 2307.86,720.806 2289.86,716.806 2272.5,710C 2252.49,700.322 2238.32,685.156 2230,664.5C 2219.45,633.224 2214.95,601.057 2216.5,568C 2215.29,536.516 2219.13,505.683 2228,475.5C 2241,441.193 2265.83,421.693 2302.5,417C 2311.3,415.671 2319.96,414.504 2328.5,413.5 Z M 2334.5,464.5 C 2352.34,462.965 2369.68,465.132 2386.5,471C 2395.53,475.887 2401.03,483.387 2403,493.5C 2405.79,505.774 2406.12,518.107 2404,530.5C 2402.44,539.062 2397.6,544.896 2389.5,548C 2384.61,549.512 2379.61,550.512 2374.5,551C 2344.84,551.5 2315.17,551.667 2285.5,551.5C 2284.76,533.223 2286.59,515.223 2291,497.5C 2294.66,482.505 2303.83,472.672 2318.5,468C 2323.95,466.745 2329.29,465.578 2334.5,464.5 Z"/></g>
<g><path style="opacity:0.993" fill="#fefefe" d="M 2939.5,413.5 C 2963.33,412.551 2987,414.051 3010.5,418C 3049.54,425.038 3074.7,447.538 3086,485.5C 3093.04,512.542 3096.21,540.042 3095.5,568C 3096.13,594.882 3093.3,621.382 3087,647.5C 3078.95,681.88 3058.12,704.38 3024.5,715C 2995.57,722.051 2966.23,724.384 2936.5,722C 2910.67,721.277 2887,713.943 2865.5,700C 2846.9,683.985 2835.06,663.818 2830,639.5C 2826.81,625.333 2824.81,611 2824,596.5C 2823.33,577.167 2823.33,557.833 2824,538.5C 2824.83,515.024 2829.5,492.358 2838,470.5C 2850.89,442.62 2872.39,425.453 2902.5,419C 2914.89,416.579 2927.23,414.746 2939.5,413.5 Z M 2945.5,469.5 C 2962.08,468.551 2978.41,470.051 2994.5,474C 3002.89,477.725 3009.39,483.559 3014,491.5C 3019.69,504.576 3023.02,518.243 3024,532.5C 3026.65,562.966 3025.65,593.3 3021,623.5C 3019.05,639.93 3011.22,652.43 2997.5,661C 2990.43,663.814 2983.1,665.481 2975.5,666C 2964.5,666.667 2953.5,666.667 2942.5,666C 2926.74,665.874 2914.57,659.374 2906,646.5C 2898.56,629.644 2894.56,611.977 2894,593.5C 2893.16,572.478 2893.49,551.478 2895,530.5C 2896.23,514.895 2900.57,500.229 2908,486.5C 2918.06,475.318 2930.56,469.651 2945.5,469.5 Z"/></g>
<g><path style="opacity:0.986" fill="#fefffe" d="M 3261.5,413.5 C 3301.04,412.1 3340.04,415.933 3378.5,425C 3379,425.5 3379.5,426 3380,426.5C 3380.67,438.833 3380.67,451.167 3380,463.5C 3345.55,464.061 3311.05,464.894 3276.5,466C 3250.09,469.407 3233.26,483.907 3226,509.5C 3222.61,521.604 3220.61,533.938 3220,546.5C 3219.16,565.525 3219.49,584.525 3221,603.5C 3222.21,620.14 3227.21,635.473 3236,649.5C 3245.27,660.552 3257.1,667.052 3271.5,669C 3277.8,669.942 3284.14,670.609 3290.5,671C 3321.5,671.333 3352.5,671.667 3383.5,672C 3384.83,684.667 3384.83,697.333 3383.5,710C 3334.73,723.124 3285.4,726.124 3235.5,719C 3200.23,710.457 3176.06,689.29 3163,655.5C 3153.39,627.477 3149.23,598.644 3150.5,569C 3149,536.817 3153.84,505.65 3165,475.5C 3176.57,447.596 3196.74,429.096 3225.5,420C 3237.47,416.843 3249.47,414.676 3261.5,413.5 Z"/></g>
<g><path style="opacity:1" fill="#00a7f2" d="M 616.5,459.5 C 616.44,458.957 616.107,458.624 615.5,458.5C 614.52,461.086 614.187,463.753 614.5,466.5C 612.833,466.5 611.167,466.5 609.5,466.5C 609.813,463.753 609.48,461.086 608.5,458.5C 606.417,459.959 604.25,461.292 602,462.5C 600.833,460.833 599.667,459.167 598.5,457.5C 600.833,456 603.167,454.5 605.5,453C 603.167,451.333 600.833,449.667 598.5,448C 599.376,446.414 600.376,444.914 601.5,443.5C 603.996,444.58 606.33,445.914 608.5,447.5C 609.484,444.572 609.817,441.572 609.5,438.5C 611.5,438.5 613.5,438.5 615.5,438.5C 615.335,441.518 615.502,444.518 616,447.5C 618.25,446.292 620.417,444.959 622.5,443.5C 623.711,444.874 624.711,446.374 625.5,448C 623.373,449.902 621.04,451.569 618.5,453C 621.04,454.431 623.373,456.098 625.5,458C 624.711,459.626 623.711,461.126 622.5,462.5C 620.473,461.487 618.473,460.487 616.5,459.5 Z"/></g>
<g><path style="opacity:1" fill="#00a7f2" d="M 641.5,438.5 C 643.5,438.5 645.5,438.5 647.5,438.5C 647.183,441.572 647.516,444.572 648.5,447.5C 650.67,445.914 653.004,444.58 655.5,443.5C 656.624,444.914 657.624,446.414 658.5,448C 656.167,449.667 653.833,451.333 651.5,453C 653.812,454.314 655.812,455.981 657.5,458C 657.112,459.951 656.112,461.451 654.5,462.5C 652.417,461.041 650.25,459.708 648,458.5C 647.503,461.146 647.336,463.813 647.5,466.5C 645.5,466.5 643.5,466.5 641.5,466.5C 641.664,463.813 641.497,461.146 641,458.5C 638.75,459.708 636.583,461.041 634.5,462.5C 633.248,460.999 632.248,459.332 631.5,457.5C 633.457,455.515 635.79,454.015 638.5,453C 636.246,451.623 634.08,450.123 632,448.5C 631.736,446.361 632.569,444.694 634.5,443.5C 636.583,444.959 638.75,446.292 641,447.5C 641.498,444.518 641.665,441.518 641.5,438.5 Z"/></g>
<g><path style="opacity:1" fill="#00a7f2" d="M 674.5,438.5 C 676.5,438.5 678.5,438.5 680.5,438.5C 680.335,441.518 680.502,444.518 681,447.5C 683.25,446.292 685.417,444.959 687.5,443.5C 689.112,444.549 690.112,446.049 690.5,448C 688.373,449.902 686.04,451.569 683.5,453C 685.336,454.419 687.336,455.586 689.5,456.5C 690.529,458.886 689.863,460.886 687.5,462.5C 685.201,461.365 683.034,460.032 681,458.5C 680.503,461.146 680.336,463.813 680.5,466.5C 678.5,466.5 676.5,466.5 674.5,466.5C 674.813,463.753 674.48,461.086 673.5,458.5C 671.417,459.959 669.25,461.292 667,462.5C 665.16,460.835 664.493,458.835 665,456.5C 666.918,455.458 668.751,454.292 670.5,453C 668.343,451.088 666.009,449.421 663.5,448C 664.376,446.414 665.376,444.914 666.5,443.5C 668.996,444.58 671.33,445.914 673.5,447.5C 674.484,444.572 674.817,441.572 674.5,438.5 Z"/></g>
<g><path style="opacity:1" fill="#00a8f3" d="M 706.5,438.5 C 708.5,438.5 710.5,438.5 712.5,438.5C 712.183,441.572 712.516,444.572 713.5,447.5C 715.833,446.167 718.167,444.833 720.5,443.5C 721.624,444.914 722.624,446.414 723.5,448C 721.167,449.667 718.833,451.333 716.5,453C 718.833,454.667 721.167,456.333 723.5,458C 722.274,459.635 720.941,461.135 719.5,462.5C 717.417,461.041 715.25,459.708 713,458.5C 712.503,461.146 712.336,463.813 712.5,466.5C 710.5,466.5 708.5,466.5 706.5,466.5C 706.664,463.813 706.497,461.146 706,458.5C 703.75,459.708 701.583,461.041 699.5,462.5C 698.248,460.999 697.248,459.332 696.5,457.5C 698.493,455.501 700.827,454.001 703.5,453C 701.246,451.623 699.08,450.123 697,448.5C 696.736,446.361 697.569,444.694 699.5,443.5C 701.583,444.959 703.75,446.292 706,447.5C 706.498,444.518 706.665,441.518 706.5,438.5 Z"/></g>
<g><path style="opacity:1" fill="#00a7f2" d="M 739.5,438.5 C 741.5,438.5 743.5,438.5 745.5,438.5C 745.335,441.518 745.502,444.518 746,447.5C 748.333,446.167 750.667,444.833 753,443.5C 754.084,444.665 754.917,445.998 755.5,447.5C 753.569,449.804 751.236,451.638 748.5,453C 750.37,454.366 752.37,455.533 754.5,456.5C 755.529,458.886 754.863,460.886 752.5,462.5C 750.201,461.365 748.034,460.032 746,458.5C 745.503,461.146 745.336,463.813 745.5,466.5C 743.5,466.5 741.5,466.5 739.5,466.5C 739.813,463.753 739.48,461.086 738.5,458.5C 736.417,459.959 734.25,461.292 732,462.5C 730.16,460.835 729.493,458.835 730,456.5C 731.918,455.458 733.751,454.292 735.5,453C 733.343,451.088 731.009,449.421 728.5,448C 729.304,446.229 730.471,444.729 732,443.5C 734.25,444.708 736.417,446.041 738.5,447.5C 739.484,444.572 739.817,441.572 739.5,438.5 Z"/></g>
<g><path style="opacity:1" fill="#005379" d="M 616.5,459.5 C 615.833,461.833 615.167,464.167 614.5,466.5C 614.187,463.753 614.52,461.086 615.5,458.5C 616.107,458.624 616.44,458.957 616.5,459.5 Z"/></g>
<g><path style="opacity:1" fill="#00abf8" d="M 495.5,483.5 C 499.514,483.334 503.514,483.501 507.5,484C 511.934,487.267 512.6,491.267 509.5,496C 495.002,496.514 484.835,503.348 479,516.5C 478.333,597.833 478.333,679.167 479,760.5C 482.239,770.738 489.072,777.238 499.5,780C 617.5,780.667 735.5,780.667 853.5,780C 866.342,777.824 873.842,770.324 876,757.5C 876.667,677.5 876.667,597.5 876,517.5C 870.872,504.058 861.039,497.225 846.5,497C 839.892,488.761 841.892,484.261 852.5,483.5C 873.391,486.222 886.225,497.888 891,518.5C 891.667,598.5 891.667,678.5 891,758.5C 887.241,777.924 875.741,789.758 856.5,794C 736.167,794.667 615.833,794.667 495.5,794C 477.664,789.165 467.164,777.665 464,759.5C 463.333,678.167 463.333,596.833 464,515.5C 468.691,498.976 479.191,488.309 495.5,483.5 Z"/></g>
<g><path style="opacity:1" fill="#00affe" d="M 582.5,483.5 C 645.834,483.333 709.168,483.5 772.5,484C 777.833,488.333 777.833,492.667 772.5,497C 709.167,497.667 645.833,497.667 582.5,497C 578.304,494.019 577.471,490.186 580,485.5C 580.995,484.934 581.828,484.267 582.5,483.5 Z"/></g>
<g><path style="opacity:0.502" fill="#54c6ff" d="M 1126.5,470.5 C 1128.03,484.132 1128.7,497.966 1128.5,512C 1128.5,522.006 1128.17,531.839 1127.5,541.5C 1127.68,517.822 1127.35,494.156 1126.5,470.5 Z"/></g>
<g><path style="opacity:1" fill="#00abf8" d="M 514.5,563.5 C 516.857,563.337 519.19,563.503 521.5,564C 536.465,577.859 551.465,577.859 566.5,564C 574,562.167 576.833,565 575,572.5C 559.587,587.689 542.087,590.522 522.5,581C 518.701,578.203 515.201,575.036 512,571.5C 511.018,568.225 511.851,565.559 514.5,563.5 Z"/></g>
<g><path style="opacity:1" fill="#00abf8" d="M 782.5,562.5 C 784.655,562.372 786.655,562.872 788.5,564C 803.159,577.868 817.826,577.868 832.5,564C 840.434,561.603 843.601,564.436 842,572.5C 826.521,587.688 809.021,590.521 789.5,581C 786.667,578.833 783.833,576.667 781,574.5C 777.402,569.989 777.902,565.989 782.5,562.5 Z"/></g>
<g><path style="opacity:1" fill="#00acfa" d="M 669.5,583.5 C 706.778,583.106 727.778,601.273 732.5,638C 731.933,660.99 721.6,677.823 701.5,688.5C 700.667,702.488 700.167,716.488 700,730.5C 694.825,744.174 684.991,749.674 670.5,747C 663.091,744.592 657.924,739.758 655,732.5C 653.882,717.889 653.049,703.223 652.5,688.5C 626.481,672.78 617.315,650.113 625,620.5C 633.414,600.238 648.247,587.904 669.5,583.5 Z"/></g>
<g><path style="opacity:1" fill="#010204" d="M 668.5,598.5 C 689.706,596.516 705.206,604.849 715,623.5C 722.332,650.17 713.165,668.503 687.5,678.5C 686.667,694.823 686.167,711.156 686,727.5C 680.833,735.079 675.167,735.412 669,728.5C 668.5,711.837 668.333,695.17 668.5,678.5C 648.878,672.701 638.212,659.535 636.5,639C 636.973,623.712 643.64,612.046 656.5,604C 660.49,601.858 664.49,600.025 668.5,598.5 Z"/></g>
<g><path style="opacity:1" fill="#00acfa" d="M 670.5,615.5 C 688.192,613.698 698.525,621.531 701.5,639C 698.531,656.639 688.198,664.306 670.5,662C 656.38,655.926 651.213,645.426 655,630.5C 658.106,623.225 663.272,618.225 670.5,615.5 Z"/></g>
<g><path style="opacity:1" fill="#03060a" d="M 674.5,629.5 C 683.037,629.201 686.871,633.201 686,641.5C 683.229,647.637 678.729,649.47 672.5,647C 666.755,640.389 667.421,634.555 674.5,629.5 Z"/></g>
</svg>
